<?xml version="1.0" encoding="utf-8"?>
<svg viewBox="-6.192 103.739 469.37 137.429" xmlns="http://www.w3.org/2000/svg">
  <defs/>
  <rect x="19.97" y="129.528" width="162.16" height="82.805" style="stroke-linecap: round; stroke-linejoin: round; stroke-width: 10px; fill: rgb(255, 204, 0); stroke: rgb(255, 204, 0);"/>
  <g id="path393795" aria-label="D" transform="matrix(0.83, 0, 0, 0.83, -188.558899, 192.241318)" style="font-style: normal; font-weight: 700; font-size: 72px; line-height: 1; font-family: 'Brandmark1 Bold Color'; font-variant-ligatures: normal; text-align: center; text-anchor: middle;">
    <path class="c1" d="M76.5979,128.11865v-56.2373h18.43311c3.81641,0,7.51758,0.72705,11.00293,2.16748 c3.38477,1.39648,6.42285,3.40576,9.02246,5.96191c2.61426,2.5708,4.67285,5.58057,6.10645,8.93604 c1.4834,3.47803,2.23926,7.18604,2.23926,11.01709c0,3.83057-0.75586,7.53906-2.23926,11.02393 c-1.43359,3.36328-3.48535,6.37305-6.09961,8.95703c-2.60645,2.57129-5.6377,4.58789-9.02246,5.99219 c-3.48438,1.44727-7.19336,2.18164-11.00977,2.18164H76.5979z M95.03101,116.81299c4.58691,0,8.87891-1.74219,12.09766-4.91797 c3.2041-3.16113,4.96777-7.40234,4.96777-11.93115c0-4.52197-1.76367-8.7417-4.96094-11.88818 c-3.21094-3.1543-7.50977-4.88965-12.10449-4.88965h-7.12842v33.62695H95.03101z" transform="translate(184.05404 -125.52135)" stroke-width="0" stroke-linejoin="miter" stroke-miterlimit="2" style="stroke: rgb(41, 45, 51); fill: rgb(255, 255, 255);"/>
  </g>
  <polygon class="c1" points="260.843 194.277 250.325 178.714 244.312 170.974 228.48 147.66 239.567 147.66 250.241 163.229 250.255 163.209 271.607 194.277" stroke-width="0" stroke-linejoin="miter" stroke-miterlimit="2" style="font-style: normal; font-weight: 700; font-size: 72px; line-height: 1; font-family: 'Brandmark1 Bold Color'; font-variant-ligatures: normal; text-align: center; text-anchor: middle; stroke: rgb(41, 45, 51); fill: rgb(255, 255, 255);"/>
  <g id="path393797" aria-label="E" transform="matrix(0.83, 0, 0, 0.83, -188.558868, 192.241318)" style="font-style: normal; font-weight: 700; font-size: 72px; line-height: 1; font-family: 'Brandmark1 Bold Color'; font-variant-ligatures: normal; text-align: center; text-anchor: middle;">
    <path class="c1" d="M81.8186,128.08252h36.36279v-10.51367H81.8186V128.08252z M81.8186,105.47217h36.36279v-10.729H81.8186 V105.47217z M81.8186,71.91748v10.729h36.36279v-10.729H81.8186z" transform="translate(231.14584 -125.55748)" stroke-width="0" stroke-linejoin="miter" stroke-miterlimit="2" style="stroke: rgb(41, 45, 51); fill: rgb(255, 255, 255);"/>
  </g>
  <g id="path393799" aria-label="B" transform="matrix(0.83, 0, 0, 0.83, -188.558899, 192.241318)" style="font-style: normal; font-weight: 700; font-size: 72px; line-height: 1; font-family: 'Brandmark1 Bold Color'; font-variant-ligatures: normal; text-align: center; text-anchor: middle;">
    <path class="c1" d="M79.62231,71.91748h19.22607c5.68066,0,10.19531,1.15186,13.42188,3.42041 c1.81445,1.27441,3.21094,2.90186,4.1543,4.83154c0.9502,1.95117,1.43262,4.2124,1.43262,6.7251 c0,3.06055-0.82813,5.94043-2.39746,8.3457c-0.71289,1.09424-1.56934,2.06641-2.55664,2.91602 c1.43359,0.81396,2.69336,1.83643,3.75879,3.03174c2.42676,2.74316,3.71582,6.36523,3.71582,10.47656 c0,4.9043-1.74219,9.01563-5.04785,11.90234c-3.44141,2.99609-8.33105,4.51563-14.53809,4.51563H79.62231V71.91748z M104.4353,92.56152c1.3252-0.94336,1.97363-2.39795,1.97363-4.44287c0-2.60645-1.21777-3.58594-1.61328-3.90283 c-1.33203-1.07275-3.60742-1.6416-6.58105-1.6416l-7.2876,0.05029v11.32666h7.99268 C101.25269,93.95117,103.16089,93.46875,104.4353,92.56152z M106.76831,115.71143c1.36133-1.00781,2.0166-2.49805,2.0166-4.55078 c0-2.12402-0.67676-3.68652-2.08105-4.78809c-1.5918-1.24609-4.15527-1.9082-7.42383-1.9082H90.927V117.354h9.28857 C103.0603,117.354,105.32104,116.78467,106.76831,115.71143z" transform="translate(276.09213 -125.55748)" stroke-width="0" stroke-linejoin="miter" stroke-miterlimit="2" style="stroke: rgb(41, 45, 51); fill: rgb(255, 255, 255);"/>
  </g>
  <g id="path393801" aria-label="T" transform="matrix(0.83, 0, 0, 0.83, -188.558899, 192.241318)" style="font-style: normal; font-weight: 700; font-size: 72px; line-height: 1; font-family: 'Brandmark1 Bold Color'; font-variant-ligatures: normal; text-align: center; text-anchor: middle;">
    <path class="c1" d="M94.23975,82.64648H78.97412v-10.729h42.05176v10.729h-15.48145v45.43604H94.23975V82.64648z" transform="translate(317.00182 -125.55748)" stroke-width="0" stroke-linejoin="miter" stroke-miterlimit="2" style="stroke: rgb(41, 45, 51); fill: rgb(255, 255, 255);"/>
  </g>
  <path class="c1" d="M 198.308 194.337 L 228.489 194.337 L 228.489 185.611 L 198.308 185.611 L 198.308 194.337 Z M 198.308 175.571 L 228.489 175.571 L 228.489 166.665 L 198.308 166.665 L 198.308 175.571 Z M 198.308 147.72 L 198.308 156.625 L 228.489 156.625 L 228.489 147.72 L 198.308 147.72 Z" stroke-width="0" stroke-linejoin="miter" stroke-miterlimit="2" style="font-style: normal; font-weight: 700; font-size: 72px; line-height: 1; font-family: 'Brandmark1 Bold Color'; font-variant-ligatures: normal; text-align: center; text-anchor: middle; stroke: rgb(41, 45, 51); fill: rgb(255, 255, 255);"/>
  <polygon class="c1" points="261.0140075683594 147.72000122070312 250.49600219726562 163.2830047607422 244.48300170898438 171.0229949951172 228.6510009765625 194.33700561523438 239.73800659179688 194.33700561523438 250.41200256347656 178.76800537109375 250.42599487304688 178.78799438476562 271.77801513671875 147.72000122070312" stroke-width="0" stroke-linejoin="miter" stroke-miterlimit="2" style="font-style: normal; font-weight: 700; font-size: 72px; line-height: 1; font-family: 'Brandmark1 Bold Color'; font-variant-ligatures: normal; text-align: center; text-anchor: middle; stroke: rgb(41, 45, 51); fill: rgb(255, 255, 255);"/>
  <g id="path393809" aria-label="P" transform="matrix(0.83, 0, 0, 0.83, -188.558868, 192.241318)" style="font-style: normal; font-weight: 700; font-size: 72px; line-height: 1; font-family: 'Brandmark1 Bold Color'; font-variant-ligatures: normal; text-align: center; text-anchor: middle;">
    <path class="c1" d="M115.22217,77.20288c-3.39844-3.50684-8.36035-5.28516-14.75391-5.28516H80.09033v56.16455h11.30469 V82.64673h8.4248c2.78711,0,5.01855,0.66211,6.44434,1.92236c1.41211,1.23145,2.125,3.11084,2.125,5.56592 c0,2.37646-0.69141,4.21973-2.05273,5.47998c-1.59863,1.47607-4.12598,2.2251-7.52441,2.2251h-1.89874v10.72852h2.47491 c2.92285,0,5.62305-0.35254,8.01367-1.04395c2.5498-0.7417,4.75977-1.87207,6.58203-3.36279 c1.92188-1.57666,3.40527-3.5498,4.40625-5.86816c1.00879-2.34033,1.51953-5.0332,1.51953-8.01465 C119.90967,84.89331,118.28955,80.37134,115.22217,77.20288z" transform="translate(476.43661 -125.55772)" stroke-width="0" stroke-linejoin="miter" stroke-miterlimit="2" style="stroke: rgb(41, 45, 51); fill: rgb(255, 255, 255);"/>
  </g>
  <g id="path393811" aria-label="E" transform="matrix(0.83, 0, 0, 0.83, -188.558899, 192.241318)" style="font-style: normal; font-weight: 700; font-size: 72px; line-height: 1; font-family: 'Brandmark1 Bold Color'; font-variant-ligatures: normal; text-align: center; text-anchor: middle;">
    <path class="c1" d="M81.8186,128.08252h36.36279v-10.51367H81.8186V128.08252z M81.8186,105.47217h36.36279v-10.729H81.8186 V105.47217z M81.8186,71.91748v10.729h36.36279v-10.729H81.8186z" transform="translate(518.86459 -125.55748)" stroke-width="0" stroke-linejoin="miter" stroke-miterlimit="2" stroke="#41c0f0" style="fill: rgb(255, 255, 255);"/>
  </g>
  <g id="path393813" aria-label="R" transform="matrix(0.83, 0, 0, 0.83, -188.558868, 192.241318)" style="font-style: normal; font-weight: 700; font-size: 72px; line-height: 1; font-family: 'Brandmark1 Bold Color'; font-variant-ligatures: normal; text-align: center; text-anchor: middle;">
    <path class="c1" d="M121.90405,128.08252h-13.65918l-13.37109-19.27637V97.83984h2.16016 c3.40527,0,5.9541-0.74902,7.56738-2.23242c1.38281-1.27441,2.08105-3.11084,2.08105-5.47266 c0-2.4624-0.71973-4.33447-2.13867-5.55859c-1.4541-1.26025-3.75879-1.92969-6.64648-1.92969h-8.49609v45.43604H78.09595V71.91748 h20.66553c3.16113,0,6.0127,0.45361,8.48926,1.34619c2.44141,0.88574,4.5293,2.21094,6.20703,3.93164 c3.10352,3.18994,4.74512,7.71191,4.74512,13.0835c0,4.81738-1.33203,8.79932-3.95996,11.83789 c-1.8291,2.10986-4.24121,3.72266-7.2002,4.81006L121.90405,128.08252z" transform="translate(565.33724 -125.55748)" stroke-width="0" stroke-linejoin="miter" stroke-miterlimit="2" style="stroke: rgb(41, 45, 51); fill: rgb(255, 255, 255);"/>
  </g>
  <g id="path393815" aria-label="T" transform="matrix(0.83, 0, 0, 0.83, -188.558929, 192.241318)" style="font-style: normal; font-weight: 700; font-size: 72px; line-height: 1; font-family: 'Brandmark1 Bold Color'; font-variant-ligatures: normal; text-align: center; text-anchor: middle;">
    <path class="c1" d="M94.23975,82.64648H78.97412v-10.729h42.05176v10.729h-15.48145v45.43604H94.23975V82.64648z" transform="translate(604.86119 -125.55748)" stroke-width="0" stroke-linejoin="miter" stroke-miterlimit="2" style="stroke: rgb(41, 45, 51); fill: rgb(255, 255, 255);"/>
  </g>
  <g id="path393817" aria-label="S" transform="matrix(0.83, 0, 0, 0.83, -188.558868, 192.241287)" style="font-style: normal; font-weight: 700; font-size: 72px; line-height: 1; font-family: 'Brandmark1 Bold Color'; font-variant-ligatures: normal; text-align: center; text-anchor: middle;">
    <path class="c1" d="M80.97266,119.83057l-1.51953-1.62793l7.43848-8.89941l1.92188,2.41211 c1.50488,1.88672,3.4707,3.43457,5.6748,4.47168c2.07324,0.979,4.3125,1.49023,6.47266,1.49023 c2.5498,0,4.72363-0.56152,6.12109-1.57666c1.25977-0.91455,1.87207-2.13867,1.87207-3.75146 c0-1.75732-0.54004-2.84424-1.91504-3.87402c-1.58496-1.18115-4.14844-2.146-7.12207-3.26904 c-0.25195-0.09375-0.51074-0.19434-0.77734-0.29541c-4.08301-1.51904-8.00684-3.08154-11.1543-5.5874 c-1.82861-1.45459-3.18213-3.06055-4.14014-4.90381c-1.06543-2.04492-1.60547-4.37061-1.60547-6.9126 c0-4.42822,1.91553-8.52539,5.38623-11.53564c3.37012-2.91602,7.89844-4.52148,12.75977-4.52148 c6.27832,0,12.40625,2.26074,17.71289,6.53076l1.91602,1.54834l-6.90625,8.98633l-2.01563-1.65625 c-3.5498-2.93066-7.45313-4.6084-10.70703-4.6084c-3.02441,0-6.56738,1.31055-6.625,5.00439 c-0.02148,1.64893,0.77051,2.54883,1.97266,3.3916c1.72168,1.20947,4.45703,2.25342,7.35254,3.3623l0.02832,0.00732 c0.4541,0.18018,0.90723,0.36035,1.36133,0.53271c4.09668,1.60596,7.9707,3.11816,10.9082,5.5376 c3.4707,2.86572,5.16309,6.63867,5.16309,11.54248c0,2.65723-0.56836,5.12695-1.69238,7.34424 c-1.05859,2.07422-2.57031,3.88184-4.51465,5.37207c-3.54199,2.70703-8.31641,4.20508-13.4502,4.20508 C93.2998,128.55029,86.229,125.45459,80.97266,119.83057z" transform="translate(645.58531 -125.59373)" stroke-width="0" stroke-linejoin="miter" stroke-miterlimit="2" style="stroke: rgb(41, 45, 51); fill: rgb(255, 255, 255);"/>
  </g>
</svg>