<?xml version="1.0" encoding="utf-8"?>
<svg id="a" data-name="Layer 1" width="249.33" height="64.49" viewBox="-18.5 -5 249.33 64.49" xmlns="http://www.w3.org/2000/svg">
  <defs/>
  <path d="M 5.491 50.203 L 6.56 50.203 C 6.384 53.526 4.763 55.182 1.675 55.182 C 0.359 55.182 -0.686 54.829 -1.449 54.137 C -2.212 53.432 -2.717 52.399 -2.94 51.025 C -4.89 52.399 -6.663 53.444 -8.272 54.137 C -9.881 54.841 -11.313 55.182 -12.581 55.182 C -14.19 55.182 -15.588 54.712 -16.75 53.784 C -17.913 52.857 -18.5 51.624 -18.5 50.085 C -18.5 48.089 -17.525 46.339 -15.564 44.836 C -13.603 43.345 -10.914 41.889 -7.461 40.468 L -2.94 38.636 L -2.94 37.473 C -2.94 35.817 -3.046 34.631 -3.257 33.891 C -3.469 33.152 -4.021 32.494 -4.925 31.907 C -5.817 31.32 -7.003 31.038 -8.46 31.038 C -11.384 31.038 -13.004 32.013 -13.333 33.95 C -13.638 35.935 -14.46 36.921 -15.776 36.921 C -16.962 36.921 -17.549 36.358 -17.549 35.23 C -17.549 34.103 -16.762 32.94 -15.188 31.66 C -13.615 30.392 -11.172 29.746 -7.849 29.746 C -5.383 29.746 -3.469 30.134 -2.107 30.909 C -0.744 31.684 0.148 32.565 0.583 33.563 C 1.017 34.549 1.24 36.064 1.24 38.107 L 1.24 47.748 C 1.24 50.003 1.358 51.447 1.592 52.093 C 1.827 52.739 2.332 53.056 3.119 53.056 C 4.399 53.056 5.209 52.105 5.515 50.203 L 5.491 50.203 Z M -2.94 40.01 L -6.123 41.29 C -11.149 43.333 -13.662 45.893 -13.662 48.981 C -13.662 50.203 -13.345 51.189 -12.699 51.941 C -12.053 52.692 -11.219 53.068 -10.186 53.068 C -9.27 53.068 -8.213 52.763 -7.003 52.164 C -5.794 51.565 -4.443 50.661 -2.94 49.451 L -2.94 40.01 Z" fill="#1d87b5"/>
  <path d="M 30.61 48.747 L 31.866 48.747 C 30.539 53.268 27.239 55.534 21.955 55.534 C 18.55 55.534 15.696 54.383 13.371 52.07 C 11.046 49.756 9.883 46.703 9.883 42.887 C 9.883 39.07 11.14 35.817 13.641 33.387 C 16.142 30.956 19.113 29.746 22.53 29.746 C 24.586 29.746 26.488 30.192 28.214 31.097 C 29.94 32.001 30.809 33.105 30.809 34.408 C 30.809 34.89 30.645 35.348 30.328 35.782 C 30.011 36.205 29.541 36.428 28.942 36.428 C 27.662 36.428 26.875 35.676 26.582 34.185 C 26.347 33.058 25.983 32.271 25.501 31.825 C 24.997 31.378 24.01 31.155 22.554 31.155 C 19.947 31.155 17.998 32.06 16.682 33.868 C 15.367 35.676 14.721 38.389 14.721 42.029 C 14.721 45.67 15.426 48.711 16.835 50.825 C 18.244 52.939 20.381 53.996 23.247 53.996 C 27.099 53.996 29.553 52.246 30.61 48.747 L 30.61 48.747 Z" fill="#515150"/>
  <path d="M 56.703 48.747 L 57.959 48.747 C 56.644 53.268 53.333 55.534 48.048 55.534 C 44.643 55.534 41.789 54.383 39.464 52.07 C 37.139 49.756 35.976 46.703 35.976 42.887 C 35.976 39.07 37.233 35.817 39.734 33.387 C 42.235 30.956 45.206 29.746 48.624 29.746 C 50.679 29.746 52.581 30.192 54.307 31.097 C 56.034 32.001 56.903 33.105 56.903 34.408 C 56.903 34.89 56.738 35.348 56.421 35.782 C 56.104 36.205 55.634 36.428 55.035 36.428 C 53.755 36.428 52.969 35.676 52.675 34.185 C 52.44 33.058 52.088 32.271 51.595 31.825 C 51.09 31.378 50.103 31.155 48.647 31.155 C 46.04 31.155 44.091 32.06 42.776 33.868 C 41.46 35.676 40.815 38.389 40.815 42.029 C 40.815 45.67 41.519 48.711 42.928 50.825 C 44.337 52.939 46.475 53.996 49.34 53.996 C 53.192 53.996 55.646 52.246 56.703 48.747 L 56.703 48.747 Z" fill="#515150"/>
  <path d="M 69.855 35.829 C 70.513 34.103 71.593 32.658 73.073 31.484 C 74.564 30.322 76.009 29.734 77.43 29.734 C 78.71 29.734 79.719 30.134 80.459 30.932 C 81.199 31.731 81.563 32.541 81.563 33.375 C 81.563 33.938 81.375 34.42 80.999 34.831 C 80.624 35.242 80.154 35.442 79.614 35.442 C 78.639 35.442 77.899 34.725 77.394 33.281 C 77.042 32.306 76.525 31.825 75.821 31.825 C 74.987 31.825 73.989 32.388 72.815 33.527 C 71.652 34.667 70.9 35.841 70.572 37.062 C 70.243 38.283 70.078 39.963 70.078 42.1 L 70.078 46.351 C 70.078 48.899 70.114 50.496 70.184 51.154 C 70.255 51.811 70.536 52.316 71.018 52.669 C 71.511 53.021 72.38 53.197 73.625 53.197 L 74.447 53.197 L 74.447 54.536 L 61.776 54.536 L 61.776 53.197 L 62.387 53.197 C 63.549 53.197 64.383 53.033 64.876 52.716 C 65.369 52.399 65.663 51.941 65.769 51.365 C 65.863 50.778 65.91 49.111 65.91 46.351 L 65.91 39.622 C 65.91 37.062 65.874 35.453 65.804 34.796 C 65.733 34.15 65.463 33.645 64.97 33.281 C 64.489 32.917 63.62 32.741 62.375 32.741 L 61.764 32.741 L 61.764 31.425 C 63.584 31.214 65.968 30.639 68.904 29.711 C 69.468 31.249 69.773 33.281 69.832 35.806 L 69.855 35.829 Z" fill="#515150"/>
  <path d="M 105.554 38.8 L 88.891 38.8 C 88.809 39.939 88.773 40.796 88.773 41.36 C 88.773 45.552 89.431 48.688 90.746 50.802 C 92.062 52.904 94.023 53.96 96.63 53.96 C 100.176 53.96 102.689 52.375 104.169 49.216 L 105.566 49.216 C 104.944 51.201 103.711 52.751 101.867 53.867 C 100.023 54.982 98.004 55.546 95.831 55.546 C 93.811 55.546 91.897 55.041 90.1 54.019 C 88.304 52.998 86.824 51.553 85.685 49.698 C 84.534 47.831 83.959 45.576 83.959 42.91 C 83.959 39.141 85.063 36.005 87.282 33.516 C 89.502 31.014 92.273 29.77 95.596 29.77 C 98.732 29.77 101.151 30.721 102.865 32.635 C 104.58 34.549 105.484 36.616 105.578 38.835 L 105.554 38.8 Z M 100.458 37.602 C 100.517 37.156 100.54 36.757 100.54 36.405 C 100.54 34.69 100.035 33.375 99.037 32.424 C 98.039 31.484 96.806 31.014 95.338 31.014 C 91.791 31.014 89.678 33.21 88.997 37.602 L 100.446 37.602 L 100.458 37.602 Z" fill="#515150"/>
  <path d="M 130.861 33.246 L 130.861 23.922 C 130.861 21.373 130.826 19.776 130.755 19.119 C 130.685 18.461 130.415 17.956 129.921 17.604 C 129.44 17.251 128.571 17.075 127.326 17.075 L 126.715 17.075 L 126.715 15.737 C 129.052 15.678 131.624 15.267 134.407 14.515 L 135.018 14.515 L 135.018 46.598 C 135.018 49.381 135.065 51.06 135.159 51.671 C 135.253 52.269 135.558 52.716 136.075 53.009 C 136.591 53.303 137.543 53.444 138.94 53.444 L 138.94 54.782 C 136.133 54.841 133.644 55.088 131.448 55.546 C 131.213 54.63 131.096 53.197 131.096 51.236 C 129.651 52.669 128.172 53.749 126.645 54.465 C 125.118 55.182 123.533 55.546 121.901 55.546 C 118.801 55.546 116.135 54.301 113.892 51.811 C 111.649 49.322 110.522 46.316 110.522 42.781 C 110.522 38.894 111.673 35.759 113.962 33.351 C 116.252 30.956 118.988 29.758 122.159 29.758 C 123.768 29.758 125.306 30.051 126.739 30.627 C 128.183 31.214 129.546 32.083 130.826 33.246 L 130.861 33.246 Z M 130.861 34.937 C 129.581 33.833 128.289 32.999 126.997 32.447 C 125.706 31.895 124.402 31.613 123.099 31.613 C 120.903 31.613 119.059 32.459 117.591 34.15 C 116.123 35.841 115.383 38.6 115.383 42.429 C 115.383 46.257 116.135 49.181 117.65 51.025 C 119.153 52.868 121.02 53.796 123.24 53.796 C 124.719 53.796 126.093 53.444 127.35 52.751 C 128.618 52.046 129.78 51.001 130.849 49.604 L 130.849 34.948 L 130.861 34.937 Z" fill="#515150"/>
  <path d="M 149.72 29.746 L 149.72 46.386 C 149.72 48.934 149.755 50.531 149.838 51.189 C 149.92 51.847 150.19 52.352 150.683 52.704 C 151.165 53.056 152.034 53.232 153.278 53.232 L 153.889 53.232 L 153.889 54.571 L 141.042 54.571 L 141.042 53.232 L 142.028 53.232 C 143.402 53.232 144.307 53.033 144.729 52.634 C 145.152 52.234 145.387 51.765 145.457 51.201 C 145.528 50.649 145.563 49.04 145.563 46.386 L 145.563 39.164 C 145.563 36.369 145.434 34.655 145.164 34.032 C 144.906 33.41 144.553 33.022 144.119 32.87 C 143.684 32.717 142.921 32.635 141.829 32.635 L 141.042 32.635 L 141.042 31.296 C 144.495 30.944 147.184 30.427 149.086 29.758 L 149.732 29.758 L 149.72 29.746 Z" fill="#515150"/>
  <path d="M 171.997 32.013 L 164.798 32.013 L 164.798 46.433 C 164.798 48.653 164.892 50.144 165.092 50.907 C 165.292 51.671 165.703 52.293 166.325 52.763 C 166.959 53.232 167.629 53.456 168.345 53.456 C 169.742 53.456 170.964 52.657 171.985 51.072 L 172.913 51.624 C 172.314 52.904 171.422 53.867 170.247 54.524 C 169.073 55.17 167.887 55.499 166.677 55.499 C 165.28 55.499 164.047 55.088 162.99 54.266 C 161.933 53.444 161.275 52.469 161.005 51.365 C 160.747 50.261 160.606 48.312 160.606 45.541 L 160.606 32.024 L 157.154 32.024 L 157.154 30.697 C 158.739 30.662 160.172 29.993 161.428 28.689 C 162.685 27.386 163.495 25.566 163.835 23.217 L 164.775 23.217 L 164.775 30.686 L 171.973 30.686 L 171.973 32.024 L 171.997 32.013 Z" fill="#515150"/>
  <path d="M 197.444 38.8 L 180.781 38.8 C 180.699 39.939 180.663 40.796 180.663 41.36 C 180.663 45.552 181.321 48.688 182.636 50.802 C 183.951 52.904 185.913 53.96 188.52 53.96 C 192.066 53.96 194.579 52.375 196.059 49.216 L 197.444 49.216 C 196.822 51.201 195.589 52.751 193.733 53.867 C 191.89 54.982 189.87 55.546 187.698 55.546 C 185.678 55.546 183.764 55.041 181.967 54.019 C 180.17 52.998 178.691 51.553 177.551 49.698 C 176.401 47.831 175.825 45.576 175.825 42.91 C 175.825 39.141 176.929 36.005 179.149 33.516 C 181.368 31.014 184.139 29.77 187.463 29.77 C 190.598 29.77 193.017 30.721 194.732 32.635 C 196.446 34.549 197.35 36.616 197.444 38.835 L 197.444 38.8 Z M 192.348 37.602 C 192.406 37.156 192.43 36.757 192.43 36.405 C 192.43 34.69 191.925 33.375 190.927 32.424 C 189.917 31.484 188.696 31.014 187.228 31.014 C 183.681 31.014 181.568 33.21 180.886 37.602 L 192.336 37.602 L 192.348 37.602 Z" fill="#515150"/>
  <path d="M 222.751 33.246 L 222.751 23.922 C 222.751 21.373 222.716 19.776 222.645 19.119 C 222.575 18.461 222.304 17.956 221.811 17.604 C 221.318 17.251 220.461 17.075 219.216 17.075 L 218.605 17.075 L 218.605 15.737 C 220.954 15.678 223.514 15.267 226.297 14.515 L 226.908 14.515 L 226.908 46.598 C 226.908 49.381 226.955 51.06 227.049 51.671 C 227.143 52.269 227.448 52.716 227.965 53.009 C 228.481 53.303 229.433 53.444 230.83 53.444 L 230.83 54.782 C 228.023 54.841 225.522 55.088 223.338 55.546 C 223.103 54.63 222.986 53.197 222.986 51.236 C 221.541 52.669 220.062 53.749 218.535 54.465 C 217.008 55.182 215.423 55.546 213.791 55.546 C 210.702 55.546 208.025 54.301 205.782 51.811 C 203.539 49.322 202.412 46.316 202.412 42.781 C 202.412 38.894 203.562 35.759 205.852 33.351 C 208.142 30.956 210.878 29.758 214.049 29.758 C 215.658 29.758 217.184 30.051 218.629 30.627 C 220.062 31.214 221.435 32.083 222.716 33.246 L 222.751 33.246 Z M 222.751 34.937 C 221.471 33.833 220.179 32.999 218.887 32.447 C 217.595 31.895 216.292 31.613 214.989 31.613 C 212.793 31.613 210.949 32.459 209.481 34.15 C 208.013 35.841 207.273 38.6 207.273 42.429 C 207.273 46.257 208.025 49.181 209.54 51.025 C 211.055 52.868 212.91 53.796 215.129 53.796 C 216.609 53.796 217.983 53.444 219.24 52.751 C 220.508 52.046 221.67 51.001 222.739 49.604 L 222.739 34.948 L 222.751 34.937 Z" fill="#515150"/>
  <path d="M 205.97 7.199 C 206.604 7.833 208.577 8.62 208.342 9.172 C 208.107 9.724 206.933 9.971 206.604 9.959 C 205.982 9.959 203.68 8.937 202.329 9.325 C 200.157 9.959 200.826 10.746 197.433 11.932 C 194.027 13.118 181.849 12.648 175.532 14.069 C 169.202 15.49 161.769 18.896 155.521 20.868 C 149.274 22.841 142.627 21.42 142.158 20.951 C 141.688 20.481 142.475 16.359 144.729 14.856 C 146.984 13.353 149.908 12.566 149.908 12.566 C 149.908 12.566 156.32 11.779 158.645 10.945 C 160.982 10.112 163.072 8.033 164.423 7.986 C 174.827 7.587 183.717 5.062 183.717 5.062 C 183.717 5.062 198.701 0.471 201.672 0.118 C 204.643 -0.234 218.676 0.283 218.676 0.283 L 221.518 0.752 C 221.518 0.752 224.089 1.105 224.089 1.621 C 224.089 2.138 222.551 2.725 222.551 2.725 C 222.551 2.725 205.982 5.297 205.747 5.614 C 205.512 5.931 205.347 6.565 205.982 7.199 L 205.97 7.199 Z" fill="#fcb61b"/>
</svg>