<?xml version="1.0" encoding="UTF-8"?>
<svg id="a" data-name="Layer 1" xmlns="http://www.w3.org/2000/svg" width="249.33" height="64.49" viewBox="-18.5 -5 249.33 64.49">
  <path d="M20.43,42.75h.91c-.15,2.83-1.53,4.24-4.16,4.24-1.12,0-2.01-.3-2.66-.89-.65-.6-1.08-1.48-1.27-2.65-1.66,1.17-3.17,2.06-4.54,2.65-1.37,.6-2.59,.89-3.67,.89-1.37,0-2.56-.4-3.55-1.19-.99-.79-1.49-1.84-1.49-3.15,0-1.7,.83-3.19,2.5-4.47,1.67-1.27,3.96-2.51,6.9-3.72l3.85-1.56v-.99c0-1.41-.09-2.42-.27-3.05-.18-.63-.65-1.19-1.42-1.69-.76-.5-1.77-.74-3.01-.74-2.49,0-3.87,.83-4.15,2.48-.26,1.69-.96,2.53-2.08,2.53-1.01,0-1.51-.48-1.51-1.44s.67-1.95,2.01-3.04c1.34-1.08,3.42-1.63,6.25-1.63,2.1,0,3.73,.33,4.89,.99,1.16,.66,1.92,1.41,2.29,2.26,.37,.84,.56,2.13,.56,3.87v8.21c0,1.92,.1,3.15,.3,3.7,.2,.55,.63,.82,1.3,.82,1.09,0,1.78-.81,2.04-2.43Zm-7.18-8.68l-2.71,1.09c-4.28,1.74-6.42,3.92-6.42,6.55,0,1.04,.27,1.88,.82,2.52,.55,.64,1.26,.96,2.14,.96,.78,0,1.68-.26,2.71-.77,1.03-.51,2.18-1.28,3.46-2.31v-8.04Z" fill="#1d87b5"/>
  <path d="M41.82,41.51h1.07c-1.13,3.85-3.94,5.78-8.44,5.78-2.9,0-5.33-.98-7.31-2.95-1.98-1.97-2.97-4.57-2.97-7.82s1.07-6.02,3.2-8.09c2.13-2.07,4.66-3.1,7.57-3.1,1.75,0,3.37,.38,4.84,1.15,1.47,.77,2.21,1.71,2.21,2.82,0,.41-.14,.8-.41,1.17-.27,.36-.67,.55-1.18,.55-1.09,0-1.76-.64-2.01-1.91-.2-.96-.51-1.63-.92-2.01-.43-.38-1.27-.57-2.51-.57-2.22,0-3.88,.77-5,2.31-1.12,1.54-1.67,3.85-1.67,6.95s.6,5.69,1.8,7.49c1.2,1.8,3.02,2.7,5.46,2.7,3.28,0,5.37-1.49,6.27-4.47Z" fill="#515150"/>
  <path d="M64.04,41.51h1.07c-1.12,3.85-3.94,5.78-8.44,5.78-2.9,0-5.33-.98-7.31-2.95-1.98-1.97-2.97-4.57-2.97-7.82s1.07-6.02,3.2-8.09c2.13-2.07,4.66-3.1,7.57-3.1,1.75,0,3.37,.38,4.84,1.15,1.47,.77,2.21,1.71,2.21,2.82,0,.41-.14,.8-.41,1.17-.27,.36-.67,.55-1.18,.55-1.09,0-1.76-.64-2.01-1.91-.2-.96-.5-1.63-.92-2.01-.43-.38-1.27-.57-2.51-.57-2.22,0-3.88,.77-5,2.31-1.12,1.54-1.67,3.85-1.67,6.95s.6,5.69,1.8,7.49c1.2,1.8,3.02,2.7,5.46,2.7,3.28,0,5.37-1.49,6.27-4.47Z" fill="#515150"/>
  <path d="M75.24,30.51c.56-1.47,1.48-2.7,2.74-3.7,1.27-.99,2.5-1.49,3.71-1.49,1.09,0,1.95,.34,2.58,1.02,.63,.68,.94,1.37,.94,2.08,0,.48-.16,.89-.48,1.24-.32,.35-.72,.52-1.18,.52-.83,0-1.46-.61-1.89-1.84-.3-.83-.74-1.24-1.34-1.24-.71,0-1.56,.48-2.56,1.45-.99,.97-1.63,1.97-1.91,3.01-.28,1.04-.42,2.47-.42,4.29v3.62c0,2.17,.03,3.53,.09,4.09,.06,.56,.3,.99,.71,1.29,.42,.3,1.16,.45,2.22,.45h.7v1.14h-10.79v-1.14h.52c.99,0,1.7-.14,2.12-.41,.42-.27,.67-.66,.76-1.15,.08-.5,.12-1.92,.12-4.27v-5.73c0-2.18-.03-3.55-.09-4.11-.06-.55-.29-.98-.71-1.29-.41-.31-1.15-.46-2.21-.46h-.52v-1.12c1.55-.18,3.58-.67,6.08-1.46,.48,1.31,.74,3.04,.79,5.19Z" fill="#515150"/>
  <path d="M105.64,33.04h-14.19c-.07,.97-.1,1.7-.1,2.18,0,3.57,.56,6.24,1.68,8.04,1.12,1.79,2.79,2.69,5.01,2.69,3.02,0,5.16-1.35,6.42-4.04h1.19c-.53,1.69-1.58,3.01-3.15,3.96-1.57,.95-3.29,1.43-5.14,1.43-1.72,0-3.35-.43-4.88-1.3-1.53-.87-2.79-2.1-3.76-3.68-.98-1.59-1.47-3.51-1.47-5.78,0-3.21,.94-5.88,2.83-8,1.89-2.13,4.25-3.19,7.08-3.19,2.67,0,4.73,.81,6.19,2.44,1.46,1.63,2.23,3.39,2.31,5.28Zm-4.34-1.02c.05-.38,.07-.72,.07-1.02,0-1.46-.43-2.58-1.28-3.39-.85-.8-1.9-1.2-3.15-1.2-3.02,0-4.82,1.87-5.4,5.61h9.75Z" fill="#515150"/>
  <path d="M127.19,28.31v-7.94c0-2.17-.03-3.53-.09-4.09-.06-.56-.29-.99-.71-1.29-.41-.3-1.15-.45-2.21-.45h-.52v-1.14c1.99-.05,4.18-.4,6.55-1.04h.52v27.32c0,2.37,.04,3.8,.12,4.32,.08,.51,.34,.89,.78,1.14,.44,.25,1.25,.37,2.44,.37v1.14c-2.39,.05-4.51,.26-6.38,.65-.2-.78-.3-2-.3-3.67-1.23,1.22-2.49,2.14-3.79,2.75-1.3,.61-2.65,.92-4.04,.92-2.64,0-4.91-1.06-6.82-3.18-1.91-2.12-2.87-4.68-2.87-7.69,0-3.31,.98-5.98,2.93-8.03,1.95-2.04,4.28-3.06,6.98-3.06,1.37,0,2.68,.25,3.9,.74,1.23,.5,2.39,1.24,3.48,2.23Zm0,1.44c-1.09-.94-2.19-1.65-3.29-2.12-1.1-.47-2.21-.71-3.32-.71-1.87,0-3.44,.72-4.69,2.16-1.25,1.44-1.88,3.79-1.88,7.05s.64,5.75,1.93,7.32c1.28,1.57,2.87,2.36,4.76,2.36,1.26,0,2.43-.3,3.5-.89,1.08-.6,2.07-1.49,2.98-2.68v-12.48Z" fill="#515150"/>
  <path d="M143.25,25.33v14.17c0,2.17,.03,3.53,.1,4.09,.07,.56,.3,.99,.72,1.29,.41,.3,1.15,.45,2.21,.45h.52v1.14h-10.94v-1.14h.84c1.17,0,1.94-.17,2.3-.51,.36-.34,.56-.74,.62-1.22,.06-.47,.09-1.84,.09-4.1v-6.15c0-2.38-.11-3.84-.34-4.37-.22-.53-.52-.86-.89-.99-.37-.13-1.02-.2-1.95-.2h-.67v-1.14c2.94-.3,5.23-.74,6.85-1.31h.55Z" fill="#515150"/>
  <path d="M162.22,27.26h-6.13v12.28c0,1.89,.08,3.16,.25,3.81,.17,.65,.52,1.18,1.05,1.58,.54,.4,1.11,.59,1.72,.59,1.19,0,2.23-.68,3.1-2.03l.79,.47c-.51,1.09-1.27,1.91-2.27,2.47-1,.55-2.01,.83-3.04,.83-1.19,0-2.24-.35-3.14-1.05-.9-.7-1.46-1.53-1.69-2.47-.22-.94-.34-2.6-.34-4.96v-11.51h-2.94v-1.13c1.35-.03,2.57-.6,3.64-1.71,1.07-1.11,1.76-2.66,2.05-4.66h.8v6.36h6.13v1.14Z" fill="#515150"/>
  <path d="M183.89,33.04h-14.19c-.07,.97-.1,1.7-.1,2.18,0,3.57,.56,6.24,1.68,8.04,1.12,1.79,2.79,2.69,5.01,2.69,3.02,0,5.16-1.35,6.42-4.04h1.18c-.53,1.69-1.58,3.01-3.16,3.96-1.57,.95-3.29,1.43-5.14,1.43-1.72,0-3.35-.43-4.88-1.3-1.53-.87-2.79-2.1-3.76-3.68-.98-1.59-1.47-3.51-1.47-5.78,0-3.21,.94-5.88,2.83-8,1.89-2.13,4.25-3.19,7.08-3.19,2.67,0,4.73,.81,6.19,2.44,1.46,1.63,2.23,3.39,2.31,5.28Zm-4.34-1.02c.05-.38,.07-.72,.07-1.02,0-1.46-.43-2.58-1.28-3.39-.86-.8-1.9-1.2-3.15-1.2-3.02,0-4.82,1.87-5.4,5.61h9.75Z" fill="#515150"/>
  <path d="M205.44,28.31v-7.94c0-2.17-.03-3.53-.09-4.09-.06-.56-.29-.99-.71-1.29-.42-.3-1.15-.45-2.21-.45h-.52v-1.14c2-.05,4.18-.4,6.55-1.04h.52v27.32c0,2.37,.04,3.8,.12,4.32,.08,.51,.34,.89,.78,1.14s1.25,.37,2.44,.37v1.14c-2.39,.05-4.52,.26-6.38,.65-.2-.78-.3-2-.3-3.67-1.23,1.22-2.49,2.14-3.79,2.75-1.3,.61-2.65,.92-4.04,.92-2.63,0-4.91-1.06-6.82-3.18-1.91-2.12-2.87-4.68-2.87-7.69,0-3.31,.98-5.98,2.93-8.03,1.95-2.04,4.28-3.06,6.98-3.06,1.37,0,2.67,.25,3.9,.74,1.22,.5,2.39,1.24,3.48,2.23Zm0,1.44c-1.09-.94-2.19-1.65-3.29-2.12-1.1-.47-2.21-.71-3.32-.71-1.87,0-3.44,.72-4.69,2.16-1.25,1.44-1.88,3.79-1.88,7.05s.64,5.75,1.93,7.32c1.29,1.57,2.87,2.36,4.76,2.36,1.26,0,2.43-.3,3.5-.89,1.08-.6,2.07-1.49,2.98-2.68v-12.48Z" fill="#515150"/>
  <path d="M191.15,6.13c.54,.54,2.22,1.21,2.02,1.68-.2,.47-1.2,.68-1.48,.67-.53,0-2.49-.87-3.64-.54-1.85,.54-1.28,1.21-4.17,2.22-2.9,1.01-13.27,.61-18.65,1.82-5.39,1.21-11.72,4.11-17.04,5.79-5.32,1.68-10.98,.47-11.38,.07-.4-.4,.27-3.91,2.19-5.19,1.92-1.28,4.41-1.95,4.41-1.95,0,0,5.46-.67,7.44-1.38,1.99-.71,3.77-2.48,4.92-2.52,8.86-.34,16.43-2.49,16.43-2.49,0,0,12.76-3.91,15.29-4.21,2.53-.3,14.48,.14,14.48,.14l2.42,.4s2.19,.3,2.19,.74-1.31,.94-1.31,.94c0,0-14.11,2.19-14.31,2.46-.2,.27-.34,.81,.2,1.35Z" fill="#fcb61b"/>
</svg>
